<svg width="27" height="34" viewBox="0 0 27 34" fill="none" xmlns="http://www.w3.org/2000/svg">
<path d="M17.0296 22.5096C16.9128 21.22 16.9576 20.32 16.9576 19.1416C17.5416 18.8352 18.588 16.8816 18.7648 15.2312C19.224 15.1936 19.948 14.7456 20.16 12.9768C20.2744 12.0272 19.82 11.4928 19.5432 11.3248C20.2904 9.0776 21.8424 2.1256 16.6728 1.4072C16.1408 0.4728 14.7784 0 13.008 0C5.9248 0.1304 5.0704 5.3488 6.6232 11.3248C6.3472 11.4928 5.8928 12.0272 6.0064 12.9768C6.2192 14.7456 6.9424 15.1936 7.4016 15.2312C7.5776 16.8808 8.6656 18.8352 9.2512 19.1416C9.2512 20.32 9.2952 21.22 9.1784 22.5096C8.1696 25.2216 2.9888 25.4336 0 28.0488C3.1248 31.1952 8.1888 33.4456 13.5328 33.4456C18.8768 33.4456 25.1584 29.2264 26.204 28.0752C23.2336 25.436 18.0408 25.2312 17.0296 22.5096Z" fill="black"/>
</svg>
